<svg xmlns="http://www.w3.org/2000/svg" width="150" height="46.32" viewBox="0 0 150 46.32"><g transform="translate(-726.11 -614.215)"><path d="M1102.729,694.465a.7.7,0,0,0-.7.7v4.905h-4.905a.7.7,0,1,0,0,1.4h5.606a.7.7,0,0,0,.7-.7v-5.606A.7.7,0,0,0,1102.729,694.465Z" transform="translate(-266.512 -57.756)" fill="#3d2a0e"/><path d="M825,642.315H814.493v-4.2H819.4a.7.7,0,0,0,.7-.7V631.8a.7.7,0,0,0-.7-.7h-5.606a.7.7,0,1,0,0,1.4H818.7v4.2h-9.811V626.9h21.023V631.8a.7.7,0,0,0,1.4,0V626.2a.7.7,0,0,0-.7-.7H808.887v-4.905a.7.7,0,0,0-.7-.7H796.974a.7.7,0,0,0-.313.074L785.6,625.5H763.338a.7.7,0,1,0,0,1.4h22.424a.7.7,0,0,0,.313-.074l11.064-5.532h10.346v4.2H796.977a.7.7,0,0,0-.7.7v7.848H767.752a.7.7,0,1,0,0,1.4h29.225a.7.7,0,0,0,.7-.7V626.9h9.808V637.41a.7.7,0,0,0,.7.7h4.905v4.2H802.58a.7.7,0,0,0,0,1.4H824.3v4.2H792.069v-4.905a.7.7,0,0,0-.7-.7H760.044l-2.663-9.878,5.826-17.3a.7.7,0,0,0-.664-.924h-16.9a.7.7,0,0,0-.664.924l5.826,17.3-1.654,6.138-5.366-5.925a.688.688,0,0,0-.535-.23.7.7,0,0,0-.524.254l-3.3,4-3.851-4.032a.7.7,0,0,0-1.047.037l-8.258,9.993a.7.7,0,0,0,.54,1.147h20.93L744.97,654.1a.7.7,0,0,0,.677.883h16.9a.7.7,0,0,0,.677-.883l-2.8-10.379h30.245v4.905a.7.7,0,0,0,.7.7H825a.7.7,0,0,0,.7-.7v-5.606A.7.7,0,0,0,825,642.315Z" fill="#3d2a0e"/><path d="M1143.814,656.005a.7.7,0,0,0-.7.7v15.686h-6.266l3.753-4.228a.7.7,0,1,0-1.048-.93l-4.789,5.394a.7.7,0,0,0,.524,1.166h8.526a.7.7,0,0,0,.7-.7V656.706A.7.7,0,0,0,1143.814,656.005Z" transform="translate(-293.98 -30.076)" fill="#3d2a0e"/><path d="M1202.239,685.02a.7.7,0,0,0-.991,0l-6.665,6.722V688a.7.7,0,0,0-.7-.7h-2.305a.7.7,0,0,0-.5.211l-4.169,4.268a3.449,3.449,0,1,1-2.529-5.811,3.387,3.387,0,0,1,1.812.523l-2.32,2.4a.7.7,0,0,0,1.007.975l2.858-2.954a.7.7,0,0,0-.017-.992,4.791,4.791,0,0,0-3.341-1.352,4.87,4.87,0,1,0,3.551,8.173l3.945-4.038h1.309v4.746a.7.7,0,0,0,1.2.494l7.864-7.931A.7.7,0,0,0,1202.239,685.02Z" transform="translate(-326.335 -50.632)" fill="#3d2a0e"/><g transform="translate(767.051 647.921)"><path d="M890.39,735.166a.7.7,0,0,0-.7-.7H872.871a.7.7,0,1,0,0,1.4h16.818A.7.7,0,0,0,890.39,735.166Z" transform="translate(-872.17 -734.465)" fill="#2b7bad"/><path d="M954.128,754.465H937.549a.7.7,0,1,0,0,1.4h16.579a.7.7,0,1,0,0-1.4Z" transform="translate(-918.719 -748.859)" fill="#2b7bad"/><path d="M899.177,755.166a.7.7,0,0,0-.7-.7h-5.606a.7.7,0,1,0,0,1.4h5.606A.7.7,0,0,0,899.177,755.166Z" transform="translate(-886.564 -748.859)" fill="#2b7bad"/><path d="M918.477,774.465h-5.606a.7.7,0,0,0,0,1.4h5.606a.7.7,0,1,0,0-1.4Z" transform="translate(-900.958 -763.253)" fill="#2b7bad"/><path d="M962.729,774.465h-5.606a.7.7,0,1,0,0,1.4h5.606a.7.7,0,1,0,0-1.4Z" transform="translate(-932.806 -763.253)" fill="#2b7bad"/></g><path d="M740.727,685.426l3.421,3.582-3.847,4.656h-6.38Z" transform="translate(-5.62 -51.25)" fill="#7fd120"/><path d="M763.17,693.7l6.794-8.221,5.428,5.992-.6,2.229Z" transform="translate(-26.671 -51.292)" fill="#7fd120"/><path d="M814.138,657.176H799.071l5.655-20.981a.7.7,0,0,0-.013-.406l-5.582-16.575h14.946L808.5,635.79a.7.7,0,0,0-.013.406l2.62,9.718h-3.524a.7.7,0,0,0,0,1.4h3.9Z" transform="translate(-52.509 -3.598)" fill="#e23a00"/></g></svg>